<?xml version="1.0" standalone="no"?>
<!DOCTYPE svg PUBLIC "-//W3C//DTD SVG 20010904//EN"
 "http://www.w3.org/TR/2001/REC-SVG-20010904/DTD/svg10.dtd">
<svg version="1.0" xmlns="http://www.w3.org/2000/svg"
 width="700.000000pt" height="700.000000pt" viewBox="0 0 700.000000 700.000000"
 preserveAspectRatio="xMidYMid meet">
<metadata>
Created by potrace 1.14, written by Peter Selinger 2001-2017
</metadata>
<g transform="translate(0.000000,700.000000) scale(0.100000,-0.100000)"
fill="#000000" stroke="none">
<path d="M6255 6988 c-34 -19 -214 -157 -350 -267 -408 -330 -1421 -1185
-1518 -1280 -119 -116 -213 -272 -264 -438 -24 -79 -27 -104 -27 -248 -1 -169
11 -231 66 -338 l20 -40 -34 -32 c-18 -18 -166 -155 -328 -305 -162 -150 -311
-289 -331 -307 l-36 -34 -384 357 c-211 197 -386 361 -387 366 -2 5 10 30 27
56 48 75 99 193 127 294 35 126 44 357 20 498 -87 496 -432 887 -1074 1218
-248 128 -456 206 -691 259 -104 24 -137 27 -311 27 -186 0 -199 -1 -276 -27
-88 -29 -181 -85 -230 -138 -97 -105 -154 -281 -154 -476 0 -417 235 -1007
589 -1480 246 -329 532 -521 891 -599 126 -28 374 -26 492 4 121 30 231 74
316 126 l72 45 59 -62 c151 -159 651 -702 651 -707 0 -4 -698 -656 -1551
-1450 -854 -794 -1564 -1461 -1579 -1482 -41 -56 -64 -153 -57 -233 16 -166
129 -278 298 -292 82 -7 186 22 239 66 20 16 681 722 1470 1570 789 847 1438
1541 1441 1541 4 0 636 -676 1405 -1502 768 -827 1421 -1526 1449 -1554 67
-67 141 -96 245 -96 140 0 243 62 298 180 23 49 27 70 27 148 0 85 -2 96 -35
158 -33 63 -117 143 -1520 1448 -817 759 -1514 1407 -1549 1440 l-63 60 29 31
c16 18 152 165 303 327 150 162 287 310 305 328 l32 34 63 -32 c254 -128 602
-80 869 121 117 87 175 152 652 719 529 629 912 1099 996 1222 110 161 6 73
-443 -376 -204 -204 -547 -551 -763 -771 l-391 -399 -56 56 -56 56 163 183
c90 101 317 355 504 564 678 757 861 973 842 992 -4 3 -24 -6 -44 -20 -43 -30
-256 -220 -378 -336 -44 -42 -314 -299 -600 -571 -286 -272 -553 -526 -593
-564 l-73 -70 -55 55 -56 56 103 109 c57 60 320 336 584 614 752 789 893 945
872 967 -19 18 -223 -156 -1057 -902 -234 -209 -483 -432 -553 -494 l-129
-114 -56 56 -57 57 85 83 c47 46 359 353 694 683 733 720 929 929 811 862z"/>
</g>
</svg>
