<svg width="212" height="160" viewBox="0 0 212 160" fill="none" xmlns="http://www.w3.org/2000/svg">
<path d="M90.4854 151.528C89.3952 151.528 88.3277 151.971 87.5578 152.741C86.7879 153.511 86.3447 154.58 86.3447 155.668C86.3447 156.757 86.7879 157.826 87.5578 158.596C88.3277 159.366 89.3952 159.809 90.4854 159.809C91.5739 159.809 92.6414 159.366 93.4129 158.596C94.1828 157.826 94.626 156.762 94.626 155.668C94.626 154.58 94.1828 153.511 93.4129 152.741C92.6414 151.971 91.5739 151.528 90.4854 151.528Z" fill="#35CD8C"/>
<path d="M172.957 82.0119L163.307 38.4172C165.911 38.0646 168.208 36.74 169.824 34.8217C171.731 36.0137 173.981 36.706 176.391 36.706H184.672C186.959 36.706 188.812 34.8524 188.812 32.5654V16.0029C188.812 13.7158 186.959 11.8622 184.672 11.8622H176.391C173.909 11.8622 171.597 12.5966 169.654 13.8565C167.758 11.7134 164.991 10.358 161.911 10.358H137.469C133.077 10.358 129.319 13.1125 127.822 16.983H118.008C112.072 16.983 107.242 21.8127 107.242 27.7487C107.242 33.6846 112.072 38.5143 118.008 38.5143H139.321V46.8586C139.321 49.1457 141.174 50.9992 143.461 50.9992C145.748 50.9992 147.602 49.1457 147.602 46.8586V38.5143H154.848L165.242 85.4764L145.57 120.513C143.421 124.327 139.368 126.697 134.989 126.697H85.8824C83.8266 109.456 69.1274 96.0431 51.3438 96.0431C43.4749 96.0431 36.0509 98.6067 29.874 103.456C29.8659 103.462 29.8578 103.469 29.8497 103.475C22.4952 109.259 17.8726 117.56 16.7954 126.697H8.29095C8.83118 96.9294 33.214 72.8815 63.1057 72.8815H92.4783C94.7961 72.8815 96.6836 74.769 96.6836 77.0884V114.275C96.6836 116.562 98.5372 118.415 100.824 118.415H122.857C131.845 118.415 140.128 113.528 144.472 105.662C146.483 102.023 147.549 97.9015 147.552 93.7463L147.573 79.9901C147.576 77.703 145.724 75.8462 143.437 75.843C143.435 75.843 143.434 75.843 143.432 75.843C141.148 75.843 139.295 77.6933 139.292 79.9771L139.271 93.7366C139.269 96.4992 138.561 99.2391 137.225 101.657C134.336 106.885 128.83 110.133 122.857 110.133H104.965V77.0868C104.965 74.9663 104.431 72.9672 103.495 71.2155C107.215 69.0659 109.725 65.0482 109.725 60.4531C109.725 53.6033 104.151 48.0312 97.3031 48.0312H82.1898C80.7373 48.0312 79.3447 48.2836 78.0492 48.7429V12.4219C78.0492 5.57205 72.4755 0 65.6273 0H38.9154C19.5515 0 3.44836 14.2172 0.488465 32.7595C0.363922 33.1541 0.29599 33.573 0.29599 34.0081C0.29599 34.034 0.299225 34.0583 0.299225 34.0825C0.101898 35.6676 0 37.2802 0 38.9154V60.4547C0 66.6738 4.59512 71.8398 10.5683 72.7375L19.7375 81.9067C7.58899 93.4164 0 109.691 0 127.708V130.837C0 133.124 1.85358 134.978 4.14062 134.978H27.4106C27.3572 135.245 27.3281 135.523 27.3281 135.806C27.3281 141.815 29.5521 147.312 33.214 151.527H4.14062C1.85358 151.527 0 153.383 0 155.668C0 157.955 1.85358 159.809 4.14062 159.809H50.865C51.0251 159.814 51.1836 159.822 51.3438 159.822C64.5857 159.822 75.3594 149.048 75.3594 135.806C75.3594 135.523 75.3303 135.245 75.2769 134.978H134.989C141.509 134.978 147.602 131.853 151.421 126.684H156.664C155.485 129.553 154.859 132.646 154.859 135.806C154.859 141.815 157.083 147.312 160.745 151.527H107.048C104.761 151.527 102.907 153.383 102.907 155.668C102.907 157.955 104.761 159.809 107.048 159.809H178.396C178.556 159.814 178.715 159.822 178.875 159.822C192.117 159.822 202.891 149.048 202.891 135.806C202.891 132.646 202.265 129.553 201.086 126.684H207.859C210.146 126.684 212 124.83 212 122.543C212 100.687 194.621 82.8125 172.957 82.0119ZM82.1898 56.3141H97.3031C99.5853 56.3141 101.444 58.1709 101.444 60.4547C101.444 62.7369 99.5853 64.5954 97.3031 64.5954H82.1898C79.906 64.5954 78.0492 62.7369 78.0492 60.4547C78.0492 58.1709 79.906 56.3141 82.1898 56.3141ZM8.28125 38.9154C8.28125 38.6599 8.29419 38.4059 8.30066 38.1504H53.6098C55.8968 38.1504 57.7504 36.2968 57.7504 34.0097C57.7504 31.7227 55.8968 29.8691 53.6098 29.8691H9.64636C13.5153 17.3793 25.1721 8.28287 38.9154 8.28287H65.6257C67.9095 8.28287 69.7663 10.1397 69.7663 12.4235V60.4547C69.7663 62.7369 67.9095 64.5954 65.6257 64.5954H12.4235C12.4235 64.5954 12.4219 64.5954 12.4203 64.5954C10.1381 64.5954 8.28125 62.7369 8.28125 60.4547V38.9154ZM22.4192 72.8766H31.8941C29.9047 74.0121 27.9848 75.2559 26.1377 76.5951L22.4192 72.8766ZM67.0781 135.806C67.0781 144.429 60.1054 151.45 51.5039 151.536C51.4505 151.534 51.3971 151.527 51.3438 151.527H50.8666C42.4107 151.274 35.6094 144.322 35.6094 135.806C35.6094 135.523 35.5803 135.245 35.5269 134.978H67.1606C67.1072 135.245 67.0781 135.523 67.0781 135.806ZM25.1511 126.697C26.1765 120.119 29.6313 114.176 34.9673 109.985C34.9802 109.977 34.9915 109.966 35.0045 109.958C39.7047 106.273 45.3544 104.324 51.3438 104.324C64.5549 104.324 75.5389 114.037 77.5332 126.697H25.1511ZM176.391 20.1435H180.531V28.4247H176.391C174.107 28.4247 172.25 26.5679 172.25 24.2841C172.25 22.0019 174.107 20.1435 176.391 20.1435ZM115.523 27.7487C115.523 26.3787 116.638 25.2643 118.008 25.2643H127.13V28.1757C127.13 28.8809 127.201 29.5683 127.336 30.233H118.008C116.638 30.233 115.523 29.1186 115.523 27.7487ZM143.461 30.233H137.469C136.335 30.233 135.411 29.3111 135.411 28.1757V20.6967C135.411 19.5628 136.335 18.6393 137.469 18.6393H161.911C163.045 18.6393 163.969 19.5628 163.969 20.6967V28.1757C163.969 29.3111 163.045 30.233 161.911 30.233H143.461ZM194.609 135.806C194.609 144.429 187.637 151.45 179.035 151.536C178.982 151.534 178.928 151.527 178.875 151.527H178.398C169.942 151.274 163.141 144.322 163.141 135.806C163.141 132.516 164.166 129.336 166.055 126.684H191.695C193.584 129.336 194.609 132.516 194.609 135.806ZM156.252 118.402L172.041 90.2802C188.166 90.5762 201.441 102.747 203.453 118.402H156.252Z" fill="#35CD8C"/>
<path d="M143.461 67.5615C145.748 67.5615 147.602 65.7079 147.602 63.4209C147.602 61.1338 145.748 59.2803 143.461 59.2803H143.447C141.16 59.2803 139.312 61.1338 139.312 63.4209C139.312 65.7079 141.174 67.5615 143.461 67.5615Z" fill="#35CD8C"/>
</svg>
