<svg width="147" height="112" viewBox="0 0 147 112" fill="none" xmlns="http://www.w3.org/2000/svg">
<path d="M73.3711 16.7068C49.4515 16.7068 29.9917 36.1666 29.9917 60.0861C29.9917 84.0057 49.4518 103.466 73.3711 103.466C97.2904 103.466 116.751 84.0057 116.751 60.0861C116.751 36.1666 97.2906 16.7068 73.3711 16.7068ZM73.3711 97.7401C52.6085 97.7401 35.7168 80.8485 35.7168 60.0859C35.7168 39.3236 52.6082 22.4319 73.3711 22.4319C94.1337 22.4319 111.025 39.3233 111.025 60.0859C111.025 80.8485 94.1337 97.7401 73.3711 97.7401Z" fill="#35CD8C"/>
<path d="M99.0502 46.0931C98.2924 44.7055 96.5536 44.1948 95.1658 44.9523C95.1194 44.9778 95.0765 45.007 95.0318 45.0345C93.7479 45.8289 93.2927 47.4955 94.025 48.8367C95.896 52.2636 96.8848 56.1538 96.8848 60.086C96.8848 73.0514 86.3366 83.5996 73.3712 83.5996C60.4054 83.5996 49.8575 73.0511 49.8575 60.086C49.8575 47.1205 60.4057 36.5723 73.3712 36.5723C74.6153 36.5723 75.864 36.6702 77.0821 36.8635C78.593 37.1034 80.0083 36.114 80.3252 34.6383C80.3364 34.587 80.3493 34.5367 80.3576 34.484C80.6049 32.9224 79.5397 31.4558 77.9781 31.2085C76.4643 30.9686 74.9142 30.8469 73.3709 30.8469C57.2487 30.8469 44.1318 43.9635 44.1318 60.086C44.1318 76.2084 57.2484 89.325 73.3709 89.325C89.4933 89.325 102.61 76.2081 102.61 60.086C102.61 55.1976 101.379 50.3591 99.0502 46.0931Z" fill="#35CD8C"/>
<path d="M91.6608 36.1647C91.5291 36.0331 91.3831 35.9128 91.2256 35.8098C91.071 35.7067 90.905 35.618 90.7304 35.5464C90.5586 35.4748 90.3783 35.4204 90.1951 35.3832C89.8258 35.3088 89.445 35.3088 89.0757 35.3832C88.8925 35.4204 88.715 35.4748 88.5404 35.5464C88.3687 35.618 88.2026 35.7067 88.048 35.8098C87.8906 35.9128 87.7446 36.0331 87.61 36.1647C87.4784 36.2964 87.361 36.4424 87.2551 36.5999C87.152 36.7544 87.0633 36.9205 86.9917 37.0951C86.9465 37.2033 86.9107 37.3155 86.8795 37.4292C86.8612 37.4959 86.8425 37.5626 86.8288 37.6304C86.7919 37.8134 86.7744 38.0023 86.7744 38.1884C86.7744 38.3773 86.7916 38.5637 86.8288 38.7498C86.866 38.933 86.9204 39.1105 86.992 39.2848C87.0635 39.4568 87.1523 39.6229 87.2553 39.7775C87.3613 39.9349 87.4786 40.0809 87.6103 40.2126C87.7449 40.3443 87.8909 40.4645 88.0483 40.5704C88.2029 40.6735 88.3689 40.7622 88.5407 40.8338C88.7153 40.9054 88.8928 40.9598 89.076 40.997C89.2621 41.0342 89.451 41.0511 89.6371 41.0511C89.8232 41.0511 90.0121 41.0339 90.1953 40.997C90.3786 40.96 90.5589 40.9054 90.7307 40.8338C90.8807 40.7723 91.0224 40.6961 91.1578 40.6111C91.1801 40.5971 91.2039 40.585 91.2256 40.5704C91.3831 40.4645 91.5291 40.3443 91.6608 40.2126C91.7924 40.0809 91.9127 39.9349 92.0157 39.7775C92.1188 39.6229 92.2075 39.4568 92.2791 39.2848C92.3507 39.1105 92.4051 38.9301 92.4423 38.7498C92.4795 38.5637 92.4995 38.3773 92.4995 38.1884C92.4995 37.4355 92.1932 36.6969 91.6608 36.1647Z" fill="#35CD8C"/>
<path d="M146.497 101.084L137.212 25.4668C136.566 20.204 134.913 15.1957 132.3 10.5816C130.695 7.74894 128.746 5.11497 126.507 2.75267L126.257 2.48901C124.35 0.476245 121.496 -0.0602236 118.987 1.12236C116.478 2.30465 115.075 4.84759 115.413 7.60036L127.183 103.455C127.22 103.763 127.272 104.066 127.337 104.363C128.315 108.818 132.294 112 136.833 112C137.226 112 137.625 111.976 138.025 111.927C141.187 111.539 143.811 109.666 145.285 107.094C145.44 106.823 145.582 106.545 145.711 106.26C145.84 105.974 145.955 105.682 146.056 105.384C146.512 104.042 146.681 102.581 146.497 101.084ZM121.096 6.90244C121.082 6.78764 121.045 6.48162 121.428 6.30098C121.533 6.25146 121.625 6.23228 121.705 6.23228C121.917 6.23228 122.045 6.36682 122.102 6.42751L122.352 6.69117C124.272 8.71681 125.943 10.9749 127.318 13.4031C129.559 17.3587 130.976 21.6525 131.53 26.1644L136.478 66.4655L128.529 67.4414L121.096 6.90244ZM140.567 103.733C140.045 105.055 138.835 106.059 137.328 106.244C135.136 106.515 133.135 104.949 132.866 102.757L129.227 73.1241L137.176 72.1482L140.814 101.781C140.899 102.466 140.803 103.132 140.567 103.733Z" fill="#35CD8C"/>
<path d="M35.3046 3.24914C33.7347 3.05562 32.3071 4.17264 32.1144 5.74169L29.5108 26.9463C29.1049 30.251 26.4343 32.7441 23.1293 32.9456L21.2316 32.7126L24.6557 4.8262C24.8483 3.25715 23.7325 1.82866 22.1631 1.63572C20.5935 1.44134 19.1656 2.55922 18.9729 4.12827L15.5489 32.0147L13.6495 31.7817C10.4919 30.786 8.50432 27.7212 8.90997 24.4168L11.5136 3.21249C11.7063 1.64345 10.5904 0.214959 9.02104 0.0220129C7.45199 -0.172651 6.02351 0.94552 5.83085 2.51457L3.22722 23.7189C2.57596 29.0243 5.28379 33.9985 9.85151 36.3843L0.112604 99.0594C0.111459 99.0663 0.110314 99.0737 0.109169 99.0809C-0.28617 101.76 0.400019 104.422 2.04121 106.576C3.68239 108.73 6.06673 110.099 8.75252 110.429L8.80462 110.435C9.21943 110.486 9.63337 110.511 10.0442 110.511C12.3083 110.511 14.4848 109.746 16.2774 108.299C18.3955 106.591 19.6981 104.157 19.9451 101.447L25.7014 38.331C30.7112 37.1215 34.5426 32.9499 35.1939 27.6442L37.7975 6.43961C37.9899 4.87057 36.874 3.44208 35.3046 3.24914ZM14.2438 100.927C14.1384 102.081 13.5842 103.116 12.6827 103.844C11.7813 104.571 10.6528 104.896 9.50455 104.753L9.45245 104.746C8.30852 104.606 7.29369 104.024 6.59548 103.107C5.89869 102.193 5.60641 101.063 5.77188 99.9263L15.4309 37.769L17.6899 38.0464C17.691 38.0464 17.6919 38.0467 17.693 38.047C17.6939 38.047 17.6947 38.047 17.6956 38.047L19.9528 38.3241L14.2438 100.927Z" fill="#35CD8C"/>
</svg>
