<svg xmlns="http://www.w3.org/2000/svg" xmlns:xlink="http://www.w3.org/1999/xlink" viewBox="0 0 100 100" shape-rendering="geometricPrecision" text-rendering="geometricPrecision" style="background-color:transparent"><style><![CDATA[#pizza-1-1s-200px-g2_to {animation: pizza-1-1s-200px-g2_to__to 1000ms linear infinite normal forwards}@keyframes pizza-1-1s-200px-g2_to__to { 0% {transform: translate(24px,85px)} 50% {transform: translate(30px,74px)} 100% {transform: translate(24px,85px)}}]]></style><g id="pizza-1-1s-200px-g1" transform="matrix(0.8 0 0 0.8 0 0.000001)"><path id="pizza-1-1s-200px-path1" d="M88.22,28.03C87.44,26.37,85.42,25.71,83.83,26.62L83.82,26.63C85.41,25.71,85.86,23.64,84.81,22.13C78.19,12.66,67.58,6.17,55.41,5.15C53.58,4.99,52,6.41,52,8.25L52,8.26C52,6.43,50.42,5,48.6,5.16C37.08,6.15,26.17,12.1,19.19,22.12C18.14,23.63,18.58,25.71,20.17,26.63L22.66,28.07L20.18,26.64C18.59,25.72,16.57,26.37,15.79,28.03C10.89,38.5,10.58,50.93,15.78,61.98C16.56,63.64,18.58,64.3,20.17,63.39L26.98,59.46C21.63,50.2,22,39.22,26.98,30.57L26.98,30.57C32.33,21.3,42.03,16.13,52,16.12L52,16.12C62.69,16.12,72.02,21.93,77.01,30.57L77.01,30.57C82.36,39.83,81.99,50.81,77.01,59.46L77.01,59.46C71.67,68.7,61.97,73.87,52,73.88L52,81.74C52,83.57,53.58,85,55.4,84.84C66.92,83.85,77.83,77.9,84.81,67.88C85.86,66.37,85.42,64.29,83.83,63.37L81.34,61.93L83.82,63.36C85.41,64.28,87.43,63.63,88.21,61.97C93.11,51.51,93.41,39.08,88.22,28.03Z" fill="rgb(246,178,106)" stroke="rgb(50,51,52)" stroke-width="3.5" stroke-linecap="round" stroke-linejoin="round" stroke-miterlimit="10"/><path id="pizza-1-1s-200px-path2" d="M77.02,30.56L77.02,30.56C72.02,21.93,62.69,16.12,52,16.12L52,16.12C42.03,16.13,32.33,21.3,26.98,30.56L26.98,30.56C22,39.2,21.63,50.19,26.98,59.45L52,45L52,73.88C61.97,73.87,71.67,68.7,77.02,59.44L77.02,59.44C81.99,50.8,82.36,39.82,77.02,30.56Z" fill="rgb(245,225,105)" stroke="rgb(50,51,52)" stroke-width="3.5" stroke-linecap="round" stroke-linejoin="round" stroke-miterlimit="10"/><circle id="pizza-1-1s-200px-circle1" r="4.89" transform="matrix(1 0 0 1 43.11 29.6)" fill="rgb(195,56,54)" stroke="rgb(50,51,52)" stroke-width="3.5" stroke-miterlimit="10"/><circle id="pizza-1-1s-200px-circle2" r="4.89" transform="matrix(1 0 0 1 34.22 45)" fill="rgb(195,56,54)" stroke="rgb(50,51,52)" stroke-width="3.5" stroke-miterlimit="10"/><g id="pizza-1-1s-200px-g2_to" transform="translate(24,85)"><g id="pizza-1-1s-200px-g2" transform="translate(-28.311126,-75.935474)"><path id="pizza-1-1s-200px-path3" d="M19.99,70.44L13.18,74.37C11.59,75.29,11.14,77.36,12.19,78.87C18.81,88.35,29.42,94.83,41.58,95.86C43.41,96.01,44.99,94.6,44.99,92.76L44.99,84.89C34.31,84.89,24.98,79.07,19.99,70.44Z" fill="rgb(246,178,106)" stroke="rgb(50,51,52)" stroke-width="3.5" stroke-linecap="round" stroke-linejoin="round" stroke-miterlimit="10"/><g id="pizza-1-1s-200px-g3"><path id="pizza-1-1s-200px-path4" d="M45,84.89L45,56L19.99,70.44C24.98,79.07,34.31,84.89,45,84.89Z" fill="rgb(245,225,105)" stroke="rgb(50,51,52)" stroke-width="3.5" stroke-linecap="round" stroke-linejoin="round" stroke-miterlimit="10"/><circle id="pizza-1-1s-200px-circle3" r="4.89" transform="matrix(1 0 0 1 36.11 71.4)" fill="rgb(195,56,54)" stroke="rgb(50,51,52)" stroke-width="3.5" stroke-miterlimit="10"/></g></g></g><circle id="pizza-1-1s-200px-circle4" r="4.89" transform="matrix(1 0 0 1 60.89 60.4)" fill="rgb(195,56,54)" stroke="rgb(50,51,52)" stroke-width="3.5" stroke-miterlimit="10"/><circle id="pizza-1-1s-200px-circle5" r="4.89" transform="matrix(1 0 0 1 69.78 45)" fill="rgb(195,56,54)" stroke="rgb(50,51,52)" stroke-width="3.5" stroke-miterlimit="10"/><circle id="pizza-1-1s-200px-circle6" r="4.89" transform="matrix(1 0 0 1 60.89 29.6)" fill="rgb(195,56,54)" stroke="rgb(50,51,52)" stroke-width="3.5" stroke-miterlimit="10"/></g></svg>