<svg width="112" height="112" viewBox="0 0 112 112" fill="none" xmlns="http://www.w3.org/2000/svg">
<path d="M13.7248 108.266C13.3179 107.859 12.7535 107.625 12.1782 107.625C11.6007 107.625 11.0385 107.859 10.6317 108.266C10.2226 108.673 9.99072 109.237 9.99072 109.812C9.99072 110.388 10.2226 110.952 10.6317 111.359C11.0385 111.766 11.6009 112 12.1782 112C12.7535 112 13.3179 111.766 13.7248 111.359C14.1314 110.952 14.3657 110.388 14.3657 109.812C14.3657 109.237 14.1317 108.673 13.7248 108.266Z" fill="#35CD8C"/>
<path d="M81.6088 92.807C81.2022 92.3999 80.6378 92.166 80.0625 92.166C79.4872 92.166 78.9228 92.3999 78.5159 92.807C78.1091 93.2141 77.875 93.7782 77.875 94.3535C77.875 94.931 78.1088 95.4932 78.5159 95.8999C78.9228 96.3067 79.4872 96.541 80.0625 96.541C80.6378 96.541 81.2022 96.307 81.6088 95.8999C82.0157 95.4932 82.25 94.9308 82.25 94.3535C82.25 93.7782 82.0159 93.2138 81.6088 92.807Z" fill="#35CD8C"/>
<path d="M104.945 35.3544C106.6 33.6919 107.625 31.4009 107.625 28.875V27.125C107.625 22.059 103.504 17.9375 98.4375 17.9375C93.3715 17.9375 89.25 22.059 89.25 27.125V28.875C89.25 31.4013 90.2753 33.6923 91.931 35.355C88.3407 37.3268 85.7332 40.875 85.0513 45.0625H75.0312C71.4127 45.0625 68.4688 48.0064 68.4688 51.625C68.4688 52.3919 68.6022 53.1278 68.845 53.8125H43.155C43.3978 53.1278 43.5312 52.3919 43.5312 51.625C43.5312 48.0064 40.5873 45.0625 36.9688 45.0625H26.9487C26.2668 40.875 23.6593 37.3266 20.069 35.355C21.7247 33.6923 22.75 31.4013 22.75 28.875V27.125C22.75 22.059 18.6285 17.9375 13.5625 17.9375C8.49647 17.9375 4.375 22.059 4.375 27.125V28.875C4.375 31.4009 5.40006 33.6919 7.05534 35.3544C2.85447 37.6615 0 42.1282 0 47.25V69.125V71.7865C0 78.6417 5.57703 84.2188 12.4322 84.2188H29.75V105.109C29.75 105.997 29.9206 106.845 30.2275 107.625H21.5834C20.3755 107.625 19.3959 108.605 19.3959 109.812C19.3959 111.02 20.3755 112 21.5834 112H99.8228C101.031 112 102.01 111.02 102.01 109.812C102.01 108.605 101.031 107.625 99.8228 107.625H81.7725C82.0794 106.845 82.25 105.997 82.25 105.109V102.594C82.25 101.386 81.2704 100.406 80.0625 100.406C78.8546 100.406 77.875 101.386 77.875 102.594V105.109C77.875 106.496 76.7465 107.625 75.3594 107.625C73.9723 107.625 72.8438 106.496 72.8438 105.109V77.4922C72.8438 74.0847 75.616 71.3125 79.0234 71.3125H87.0625H88.8125H107.625V71.7865C107.625 76.2293 104.011 79.8438 99.5678 79.8438H80.0625C78.8546 79.8438 77.875 80.8233 77.875 82.0312V85.5312C77.875 86.7392 78.8546 87.7188 80.0625 87.7188C81.2704 87.7188 82.25 86.7392 82.25 85.5312V84.2188H99.5678C106.423 84.2188 112 78.6417 112 71.7865V69.125V47.25C112 42.1282 109.146 37.6615 104.945 35.3544ZM93.625 27.125C93.625 24.4713 95.7838 22.3125 98.4375 22.3125C101.091 22.3125 103.25 24.4713 103.25 27.125V28.875C103.25 31.5287 101.091 33.6875 98.4375 33.6875C95.7838 33.6875 93.625 31.5287 93.625 28.875V27.125ZM8.75 27.125C8.75 24.4713 10.9088 22.3125 13.5625 22.3125C16.2162 22.3125 18.375 24.4713 18.375 27.125V28.875C18.375 31.5287 16.2162 33.6875 13.5625 33.6875C10.9088 33.6875 8.75 31.5287 8.75 28.875V27.125ZM4.375 47.25C4.375 42.184 8.49647 38.0625 13.5625 38.0625C18.6285 38.0625 22.75 42.184 22.75 47.25C22.75 48.4579 23.7296 49.4375 24.9375 49.4375H36.9688C38.1749 49.4375 39.1562 50.4188 39.1562 51.625C39.1562 52.8312 38.1749 53.8125 36.9688 53.8125H24.2298C20.7517 53.8125 17.5709 51.9078 15.9283 48.8418C15.358 47.777 14.0319 47.376 12.9671 47.9467C11.9022 48.517 11.5014 49.8428 12.0719 50.9079C14.2618 54.9957 18.3192 57.6739 22.8723 58.121C22.7931 58.3472 22.75 58.5907 22.75 58.8438V66.9375H4.375V47.25ZM31.3648 66.9375H27.125V58.8438C27.125 58.6152 27.09 58.3947 27.0248 58.1875H31.3648C30.6178 59.4755 30.1875 60.9693 30.1875 62.5625C30.1875 64.1557 30.6176 65.6495 31.3648 66.9375ZM39.1562 105.109C39.1562 106.496 38.0277 107.625 36.6406 107.625C35.2535 107.625 34.125 106.496 34.125 105.109V82.0312C34.125 80.8233 33.1454 79.8438 31.9375 79.8438H12.4322C7.98941 79.8438 4.375 76.2293 4.375 71.7865V71.3125H23.1875H24.9375H32.9766C36.384 71.3125 39.1562 74.0847 39.1562 77.4922V105.109ZM49.4375 107.625H43.0537C43.3608 106.845 43.5312 105.997 43.5312 105.109V77.4922C43.5312 75.1857 42.7855 73.0511 41.5251 71.3125H49.4375V107.625ZM58.1875 107.625H53.8125V71.3125H58.1875V107.625ZM68.9463 107.625H62.5625V71.3125H70.4749C69.2147 73.0511 68.4688 75.1857 68.4688 77.4922V105.109C68.4688 105.997 68.6394 106.845 68.9463 107.625ZM73.0625 66.9375H38.9375C36.5251 66.9375 34.5625 64.9749 34.5625 62.5625C34.5625 60.1501 36.5251 58.1875 38.9375 58.1875H73.0625C75.4749 58.1875 77.4375 60.1501 77.4375 62.5625C77.4375 64.9749 75.4749 66.9375 73.0625 66.9375ZM84.875 58.8438V66.9375H80.6352C81.3822 65.6495 81.8125 64.1557 81.8125 62.5625C81.8125 60.9693 81.3824 59.4755 80.6352 58.1875H84.9752C84.91 58.3947 84.875 58.6152 84.875 58.8438ZM107.625 66.9375H89.25V58.8438C89.25 58.5907 89.2069 58.3472 89.1277 58.121C93.6808 57.6739 97.7382 54.9957 99.9281 50.9079C100.499 49.8428 100.098 48.517 99.0329 47.9467C97.9676 47.3762 96.6422 47.7774 96.0717 48.8418C94.4291 51.9078 91.2483 53.8125 87.7702 53.8125H75.0312C73.8251 53.8125 72.8438 52.8312 72.8438 51.625C72.8438 50.4188 73.8251 49.4375 75.0312 49.4375H87.0625C88.2704 49.4375 89.25 48.4579 89.25 47.25C89.25 42.184 93.3715 38.0625 98.4375 38.0625C103.504 38.0625 107.625 42.184 107.625 47.25V66.9375Z" fill="#35CD8C"/>
<path d="M71.75 0H40.25C36.6314 0 33.6875 2.94394 33.6875 6.5625V28C33.6875 31.6186 36.6314 34.5625 40.25 34.5625H47.875L54.453 41.1405C54.8804 41.5675 55.44 41.7812 56 41.7812C56.56 41.7812 57.1196 41.5675 57.5468 41.1405L64.125 34.5625H71.75C75.3686 34.5625 78.3125 31.6186 78.3125 28V6.5625C78.3125 2.94394 75.3686 0 71.75 0ZM73.9375 28C73.9375 29.2062 72.9562 30.1875 71.75 30.1875H63.2188C62.6386 30.1875 62.0823 30.4181 61.672 30.8282L56 36.5L50.328 30.828C49.9177 30.4181 49.3614 30.1875 48.7812 30.1875H40.25C39.0438 30.1875 38.0625 29.2062 38.0625 28V6.5625C38.0625 5.35631 39.0438 4.375 40.25 4.375H71.75C72.9562 4.375 73.9375 5.35631 73.9375 6.5625V28Z" fill="#35CD8C"/>
<path d="M47.2651 14.897C46.8584 14.488 46.2941 14.2561 45.7188 14.2561C45.1434 14.2561 44.5791 14.488 44.1722 14.897C43.7653 15.3039 43.5312 15.8683 43.5312 16.4436C43.5312 17.0189 43.7651 17.5833 44.1722 17.9902C44.5791 18.397 45.1434 18.6311 45.7188 18.6311C46.2941 18.6311 46.8584 18.397 47.2651 17.9902C47.672 17.5833 47.9062 17.0189 47.9062 16.4436C47.9062 15.8683 47.6722 15.3039 47.2651 14.897Z" fill="#35CD8C"/>
<path d="M57.5463 14.897C57.1397 14.4904 56.5753 14.2561 56 14.2561C55.4247 14.2561 54.8603 14.4902 54.4534 14.897C54.0466 15.3039 53.8125 15.8683 53.8125 16.4436C53.8125 17.0189 54.0463 17.5833 54.4534 17.9902C54.8603 18.397 55.4247 18.6311 56 18.6311C56.5753 18.6311 57.1397 18.397 57.5463 17.9902C57.9532 17.5833 58.1875 17.0189 58.1875 16.4436C58.1875 15.8683 57.9534 15.3039 57.5463 14.897Z" fill="#35CD8C"/>
<path d="M67.8276 14.897C67.4209 14.488 66.8566 14.2561 66.2812 14.2561C65.7059 14.2561 65.1416 14.488 64.7347 14.897C64.3278 15.3039 64.0938 15.8683 64.0938 16.4436C64.0938 17.0189 64.3276 17.5833 64.7347 17.9902C65.1416 18.397 65.7059 18.6311 66.2812 18.6311C66.8566 18.6311 67.4209 18.397 67.8276 17.9902C68.2345 17.5833 68.4688 17.0189 68.4688 16.4436C68.4688 15.8683 68.2347 15.3039 67.8276 14.897Z" fill="#35CD8C"/>
</svg>
