<svg width="212" height="160" fill="none" xmlns="http://www.w3.org/2000/svg"><path d="M90.485 151.528a4.17 4.17 0 00-2.927 1.213 4.173 4.173 0 00-1.213 2.927c0 1.089.443 2.158 1.213 2.928a4.17 4.17 0 002.927 1.213 4.176 4.176 0 002.928-1.213 4.165 4.165 0 001.213-2.928 4.173 4.173 0 00-1.213-2.927 4.176 4.176 0 00-2.928-1.213z" fill="#35CD8C"/><path d="M172.957 82.012l-9.65-43.595a10.337 10.337 0 006.517-3.595 12.35 12.35 0 006.567 1.884h8.281a4.14 4.14 0 004.14-4.14V16.002a4.14 4.14 0 00-4.14-4.14h-8.281a12.34 12.34 0 00-6.737 1.994 10.315 10.315 0 00-7.743-3.499h-24.442c-4.392 0-8.15 2.755-9.647 6.625h-9.814c-5.936 0-10.766 4.83-10.766 10.766s4.83 10.765 10.766 10.765h21.313v8.345a4.14 4.14 0 108.281 0v-8.345h7.246l10.394 46.962-19.672 35.037a12.16 12.16 0 01-10.581 6.184H85.882c-2.055-17.241-16.755-30.654-34.538-30.654-7.87 0-15.293 2.564-21.47 7.413l-.024.019c-7.355 5.784-11.977 14.085-13.055 23.222H8.291c.54-29.768 24.923-53.816 54.815-53.816h29.372a4.212 4.212 0 014.206 4.207v37.187a4.14 4.14 0 004.14 4.14h22.033a24.697 24.697 0 0024.695-24.669l.021-13.756a4.142 4.142 0 00-4.136-4.147h-.005a4.14 4.14 0 00-4.14 4.134l-.021 13.76a16.448 16.448 0 01-2.046 7.92 16.42 16.42 0 01-14.368 8.476h-17.892V77.087c0-2.12-.534-4.12-1.47-5.871 3.72-2.15 6.23-6.168 6.23-10.763 0-6.85-5.574-12.422-12.422-12.422H82.19c-1.453 0-2.845.253-4.14.712V12.422C78.05 5.572 72.474 0 65.626 0H38.915C19.552 0 3.448 14.217.488 32.76a4.14 4.14 0 00-.192 1.248c0 .026.003.05.003.075A39.105 39.105 0 000 38.915v21.54c0 6.219 4.595 11.385 10.568 12.282l9.17 9.17C7.589 93.417 0 109.69 0 127.708v3.129a4.14 4.14 0 004.14 4.141h23.27a4.227 4.227 0 00-.082.828c0 6.009 2.224 11.506 5.886 15.721H4.141a4.142 4.142 0 000 8.282h46.724c.16.005.319.013.479.013 13.242 0 24.015-10.774 24.015-24.016 0-.283-.029-.561-.082-.828h59.712a20.46 20.46 0 0016.432-8.294h5.243a23.987 23.987 0 00-1.805 9.122c0 6.009 2.224 11.506 5.886 15.721h-53.697a4.141 4.141 0 000 8.282h71.348c.16.005.319.013.479.013 13.242 0 24.016-10.774 24.016-24.016 0-3.16-.626-6.253-1.805-9.122h6.773a4.141 4.141 0 004.141-4.141c0-21.856-17.379-39.73-39.043-40.531zM82.19 56.314h15.113a4.146 4.146 0 014.141 4.14 4.147 4.147 0 01-4.14 4.141H82.19a4.146 4.146 0 01-4.14-4.14 4.144 4.144 0 014.14-4.14zM8.28 38.915c0-.255.013-.51.02-.765h45.31a4.14 4.14 0 100-8.28H9.646c3.87-12.49 15.526-21.587 29.27-21.587h26.71a4.144 4.144 0 014.14 4.14v48.032a4.146 4.146 0 01-4.14 4.14H12.42a4.145 4.145 0 01-4.139-4.14v-21.54zm14.14 33.962h9.475a63.088 63.088 0 00-5.756 3.718l-3.719-3.718zm44.66 62.929c0 8.623-6.974 15.644-15.575 15.73-.053-.002-.107-.009-.16-.009h-.477c-8.456-.253-15.258-7.205-15.258-15.721 0-.283-.029-.561-.082-.828H67.16a4.227 4.227 0 00-.083.828zm-41.928-9.109c1.026-6.578 4.48-12.521 9.816-16.712.013-.008.025-.019.038-.027 4.7-3.685 10.35-5.634 16.339-5.634 13.21 0 24.195 9.713 26.19 22.373H25.15zm151.24-106.553h4.14v8.28h-4.14a4.145 4.145 0 01-4.141-4.14 4.146 4.146 0 014.141-4.14zm-60.868 7.605a2.488 2.488 0 012.485-2.485h9.122v2.912c0 .705.071 1.392.206 2.057h-9.328a2.488 2.488 0 01-2.485-2.484zm27.938 2.484h-5.992a2.06 2.06 0 01-2.058-2.057v-7.48a2.06 2.06 0 012.058-2.057h24.442a2.06 2.06 0 012.058 2.058v7.479a2.06 2.06 0 01-2.058 2.057h-18.45zm51.148 105.573c0 8.623-6.972 15.644-15.574 15.73-.053-.002-.107-.009-.16-.009h-.477c-8.456-.253-15.257-7.205-15.257-15.721 0-3.29 1.025-6.47 2.914-9.122h25.64a15.707 15.707 0 012.914 9.122zm-38.357-17.404l15.789-28.122c16.125.296 29.4 12.467 31.412 28.122h-47.201z" fill="#35CD8C"/><path d="M143.461 67.561a4.14 4.14 0 100-8.28h-.014a4.135 4.135 0 00-4.135 4.14 4.148 4.148 0 004.149 4.14z" fill="#35CD8C"/></svg>