<svg width="147" height="112" fill="none" xmlns="http://www.w3.org/2000/svg"><path d="M73.371 16.707c-23.92 0-43.38 19.46-43.38 43.38 0 23.919 19.46 43.379 43.38 43.379s43.38-19.46 43.38-43.38-19.46-43.38-43.38-43.38zm0 81.033c-20.762 0-37.654-16.891-37.654-37.654 0-20.762 16.891-37.654 37.654-37.654 20.763 0 37.654 16.891 37.654 37.654 0 20.763-16.891 37.654-37.654 37.654z" fill="#35CD8C"/><path d="M99.05 46.093a2.863 2.863 0 00-3.884-1.14c-.047.025-.09.054-.134.081a2.86 2.86 0 00-1.007 3.803 23.538 23.538 0 012.86 11.249c0 12.965-10.548 23.514-23.514 23.514S49.858 73.05 49.858 60.086 60.406 36.572 73.37 36.572c1.244 0 2.493.098 3.711.291a2.858 2.858 0 003.243-2.225c.011-.051.024-.101.033-.154a2.863 2.863 0 00-2.38-3.276 29.527 29.527 0 00-4.607-.361c-16.122 0-29.24 13.117-29.24 29.239s13.117 29.239 29.24 29.239c16.122 0 29.239-13.117 29.239-29.239 0-4.888-1.231-9.727-3.56-13.993z" fill="#35CD8C"/><path d="M91.66 36.165a2.826 2.826 0 00-.93-.618 2.835 2.835 0 00-2.19 0 2.907 2.907 0 00-.93.618 2.909 2.909 0 00-.618.93c-.046.108-.081.22-.113.334-.018.067-.037.134-.05.201a2.85 2.85 0 001.712 3.203c.174.072.352.127.535.164a2.867 2.867 0 002.082-.386l.068-.04a2.92 2.92 0 00.435-.358 2.898 2.898 0 00.839-2.024 2.88 2.88 0 00-.84-2.024zm54.837 64.919l-9.285-75.617a39.93 39.93 0 00-4.912-14.885 40.199 40.199 0 00-5.793-7.83l-.25-.263c-1.907-2.013-4.761-2.55-7.27-1.367-2.509 1.183-3.912 3.726-3.574 6.478l11.77 95.855c.037.308.089.611.154.908.978 4.455 4.957 7.637 9.496 7.637a9.723 9.723 0 008.878-5.74 9.71 9.71 0 00.786-5.176zM121.096 6.902c-.014-.114-.051-.42.332-.601a.648.648 0 01.277-.069c.212 0 .34.135.397.196l.25.263a34.423 34.423 0 014.966 6.712 34.221 34.221 0 014.212 12.761l4.948 40.302-7.949.975-7.433-60.539zm19.471 96.831a4.008 4.008 0 01-3.239 2.511 4.007 4.007 0 01-4.462-3.487l-3.639-29.633 7.949-.976 3.638 29.633a3.983 3.983 0 01-.247 1.952zM35.305 3.25a2.862 2.862 0 00-3.19 2.492L29.51 26.946a6.818 6.818 0 01-6.382 6l-1.897-.233 3.424-27.887a2.863 2.863 0 00-5.683-.698l-3.424 27.887-1.9-.233a6.818 6.818 0 01-4.739-7.365l2.604-21.205a2.863 2.863 0 00-5.683-.697L3.227 23.719a12.512 12.512 0 006.625 12.665L.112 99.06l-.003.022a9.89 9.89 0 001.932 7.495 9.891 9.891 0 006.712 3.853l.052.006c.414.051.828.076 1.24.076a9.87 9.87 0 006.232-2.212 9.884 9.884 0 003.668-6.852l5.756-63.116a12.511 12.511 0 009.493-10.687L37.797 6.44a2.864 2.864 0 00-2.492-3.19zm-21.061 97.677a4.21 4.21 0 01-1.561 2.917 4.197 4.197 0 01-3.178.909l-.053-.007a4.205 4.205 0 01-2.857-1.639 4.208 4.208 0 01-.823-3.18l9.659-62.158 2.259.277.003.001h.003l2.257.277-5.71 62.603z" fill="#35CD8C"/></svg>