<svg xmlns="http://www.w3.org/2000/svg" viewBox="0 0 100 100" shape-rendering="geometricPrecision" text-rendering="geometricPrecision" style="background-color:transparent"><style>@keyframes pizza-1-1s-200px-g2_to__to{0%{transform:translate(24px,85px)}50%{transform:translate(30px,74px)}}</style><g id="pizza-1-1s-200px-g1" transform="scale(.8)"><path id="pizza-1-1s-200px-path1" d="M88.22 28.03c-.78-1.66-2.8-2.32-4.39-1.41l-.01.01c1.59-.92 2.04-2.99.99-4.5-6.62-9.47-17.23-15.96-29.4-16.98C53.58 4.99 52 6.41 52 8.25v.01c0-1.83-1.58-3.26-3.4-3.1-11.52.99-22.43 6.94-29.41 16.96-1.05 1.51-.61 3.59.98 4.51l2.49 1.44-2.48-1.43c-1.59-.92-3.61-.27-4.39 1.39-4.9 10.47-5.21 22.9-.01 33.95.78 1.66 2.8 2.32 4.39 1.41l6.81-3.93c-5.35-9.26-4.98-20.24 0-28.89h0C32.33 21.3 42.03 16.13 52 16.12h0c10.69 0 20.02 5.81 25.01 14.45h0c5.35 9.26 4.98 20.24 0 28.89h0C71.67 68.7 61.97 73.87 52 73.88v7.86c0 1.83 1.58 3.26 3.4 3.1 11.52-.99 22.43-6.94 29.41-16.96 1.05-1.51.61-3.59-.98-4.51l-2.49-1.44 2.48 1.43c1.59.92 3.61.27 4.39-1.39 4.9-10.46 5.2-22.89.01-33.94z" fill="#F6B26A" stroke="#323334" stroke-width="3.5" stroke-linecap="round" stroke-linejoin="round" stroke-miterlimit="10"/><path id="pizza-1-1s-200px-path2" d="M77.02 30.56h0c-5-8.63-14.33-14.44-25.02-14.44h0c-9.97.01-19.67 5.18-25.02 14.44h0c-4.98 8.64-5.35 19.63 0 28.89L52 45v28.88c9.97-.01 19.67-5.18 25.02-14.44h0c4.97-8.64 5.34-19.62 0-28.88z" fill="#F5E169" stroke="#323334" stroke-width="3.5" stroke-linecap="round" stroke-linejoin="round" stroke-miterlimit="10"/><circle id="pizza-1-1s-200px-circle1" r="4.89" transform="translate(43.11 29.6)" fill="#C33836" stroke="#323334" stroke-width="3.5" stroke-miterlimit="10"/><circle id="pizza-1-1s-200px-circle2" r="4.89" transform="translate(34.22 45)" fill="#C33836" stroke="#323334" stroke-width="3.5" stroke-miterlimit="10"/><g transform="translate(24 85)" style="animation:pizza-1-1s-200px-g2_to__to 1000ms linear infinite normal forwards"><g id="pizza-1-1s-200px-g2" transform="translate(-28.311 -75.935)" stroke="#323334" stroke-width="3.5" stroke-miterlimit="10"><path id="pizza-1-1s-200px-path3" d="M19.99 70.44l-6.81 3.93a3.123 3.123 0 00-.99 4.5c6.62 9.48 17.23 15.96 29.39 16.99 1.83.15 3.41-1.26 3.41-3.1v-7.87c-10.68 0-20.01-5.82-25-14.45z" fill="#F6B26A" stroke-linecap="round" stroke-linejoin="round"/><g id="pizza-1-1s-200px-g3"><path id="pizza-1-1s-200px-path4" d="M45 84.89V56L19.99 70.44C24.98 79.07 34.31 84.89 45 84.89z" fill="#F5E169" stroke-linecap="round" stroke-linejoin="round"/><circle id="pizza-1-1s-200px-circle3" r="4.89" transform="translate(36.11 71.4)" fill="#C33836"/></g></g></g><circle id="pizza-1-1s-200px-circle4" r="4.89" transform="translate(60.89 60.4)" fill="#C33836" stroke="#323334" stroke-width="3.5" stroke-miterlimit="10"/><circle id="pizza-1-1s-200px-circle5" r="4.89" transform="translate(69.78 45)" fill="#C33836" stroke="#323334" stroke-width="3.5" stroke-miterlimit="10"/><circle id="pizza-1-1s-200px-circle6" r="4.89" transform="translate(60.89 29.6)" fill="#C33836" stroke="#323334" stroke-width="3.5" stroke-miterlimit="10"/></g></svg>