<svg width="112" height="112" fill="none" xmlns="http://www.w3.org/2000/svg"><path d="M13.725 108.266a2.204 2.204 0 00-1.547-.641 2.2 2.2 0 00-1.546.641 2.19 2.19 0 00-.001 3.093 2.2 2.2 0 001.547.641c.575 0 1.14-.234 1.547-.641.406-.407.64-.971.64-1.547 0-.575-.233-1.139-.64-1.546zm67.884-15.459a2.202 2.202 0 00-1.546-.641c-.576 0-1.14.234-1.547.641a2.203 2.203 0 00-.641 1.546c0 .578.234 1.14.64 1.547.408.407.972.641 1.547.641.576 0 1.14-.234 1.547-.641a2.2 2.2 0 00.641-1.547c0-.575-.234-1.14-.641-1.546z" fill="#35CD8C"/><path d="M104.945 35.354a9.16 9.16 0 002.68-6.479v-1.75c0-5.066-4.121-9.188-9.188-9.188-5.066 0-9.187 4.122-9.187 9.188v1.75a9.16 9.16 0 002.681 6.48c-3.59 1.972-6.198 5.52-6.88 9.708h-10.02a6.57 6.57 0 00-6.562 6.562c0 .767.133 1.503.376 2.188h-25.69a6.53 6.53 0 00.376-2.188 6.57 6.57 0 00-6.562-6.563h-10.02c-.682-4.187-3.29-7.735-6.88-9.707a9.16 9.16 0 002.681-6.48v-1.75c0-5.066-4.122-9.188-9.188-9.188-5.066 0-9.187 4.122-9.187 9.188v1.75a9.16 9.16 0 002.68 6.48C2.855 37.66 0 42.127 0 47.25v24.537c0 6.855 5.577 12.432 12.432 12.432H29.75v20.89c0 .888.17 1.736.477 2.516h-8.644a2.188 2.188 0 000 4.375h78.24a2.188 2.188 0 000-4.375h-18.05c.306-.78.477-1.628.477-2.516v-2.515a2.188 2.188 0 00-4.375 0v2.515a2.519 2.519 0 01-2.516 2.516 2.519 2.519 0 01-2.515-2.516V77.492a6.187 6.187 0 016.18-6.18h28.601v.475c0 4.442-3.614 8.057-8.057 8.057H80.063c-1.208 0-2.188.98-2.188 2.187v3.5a2.188 2.188 0 004.375 0V84.22h17.318c6.855 0 12.432-5.577 12.432-12.432V47.25c0-5.122-2.854-9.589-7.055-11.896zm-11.32-8.229a4.818 4.818 0 014.813-4.813 4.818 4.818 0 014.812 4.813v1.75a4.818 4.818 0 01-4.813 4.813 4.818 4.818 0 01-4.812-4.813v-1.75zm-84.875 0a4.818 4.818 0 014.813-4.813 4.818 4.818 0 014.812 4.813v1.75a4.818 4.818 0 01-4.813 4.813 4.818 4.818 0 01-4.812-4.813v-1.75zM4.375 47.25c0-5.066 4.121-9.188 9.188-9.188 5.065 0 9.187 4.122 9.187 9.188 0 1.208.98 2.188 2.188 2.188h12.03a2.19 2.19 0 012.188 2.187 2.19 2.19 0 01-2.187 2.188h-12.74a9.403 9.403 0 01-8.3-4.971 2.187 2.187 0 10-3.857 2.066 13.769 13.769 0 0010.8 7.213 2.19 2.19 0 00-.122.723v8.093H4.375V47.25zm26.99 19.688h-4.24v-8.094c0-.229-.035-.45-.1-.657h4.34a8.694 8.694 0 00-1.177 4.376c0 1.593.43 3.087 1.177 4.374zm7.791 38.171a2.519 2.519 0 01-2.515 2.516 2.519 2.519 0 01-2.516-2.516V82.031c0-1.208-.98-2.187-2.188-2.187H12.433c-4.443 0-8.057-3.615-8.057-8.057v-.475h28.601a6.187 6.187 0 016.18 6.18v27.617zm10.282 2.516h-6.384c.307-.78.477-1.628.477-2.516V77.492c0-2.306-.745-4.44-2.006-6.18h7.913v36.313zm8.75 0h-4.376V71.312h4.376v36.313zm10.758 0h-6.383V71.312h7.912a10.496 10.496 0 00-2.006 6.18v27.617c0 .888.17 1.736.477 2.516zm4.117-40.688H38.937a4.38 4.38 0 01-4.374-4.374 4.38 4.38 0 014.374-4.376h34.126a4.38 4.38 0 014.374 4.376 4.38 4.38 0 01-4.374 4.374zm11.812-8.093v8.093h-4.24a8.694 8.694 0 001.177-4.374c0-1.594-.43-3.088-1.177-4.376h4.34c-.065.208-.1.428-.1.657zm22.75 8.093H89.25v-8.093a2.19 2.19 0 00-.122-.723 13.769 13.769 0 0010.8-7.213 2.187 2.187 0 10-3.856-2.066 9.403 9.403 0 01-8.302 4.97H75.031a2.19 2.19 0 01-2.187-2.187 2.19 2.19 0 012.187-2.188h12.031c1.208 0 2.188-.98 2.188-2.187 0-5.066 4.121-9.188 9.188-9.188 5.066 0 9.187 4.122 9.187 9.188v19.688z" fill="#35CD8C"/><path d="M71.75 0h-31.5a6.57 6.57 0 00-6.563 6.563V28a6.57 6.57 0 006.563 6.563h7.625l6.578 6.578c.427.427.987.64 1.547.64.56 0 1.12-.213 1.547-.64l6.578-6.578h7.625A6.57 6.57 0 0078.313 28V6.562A6.57 6.57 0 0071.75 0zm2.188 28a2.19 2.19 0 01-2.188 2.188h-8.531c-.58 0-1.137.23-1.547.64L56 36.5l-5.672-5.672c-.41-.41-.967-.64-1.547-.64H40.25A2.19 2.19 0 0138.062 28V6.562a2.19 2.19 0 012.188-2.187h31.5a2.19 2.19 0 012.188 2.188V28z" fill="#35CD8C"/><path d="M47.265 14.897a2.194 2.194 0 00-1.546-.64c-.576 0-1.14.231-1.547.64a2.204 2.204 0 00-.64 1.547 2.2 2.2 0 00.64 1.546c.407.407.971.641 1.547.641.575 0 1.14-.234 1.546-.64.407-.408.641-.972.641-1.547 0-.576-.234-1.14-.64-1.547zm10.281 0a2.204 2.204 0 00-1.546-.64c-.575 0-1.14.233-1.547.64-.406.407-.64.971-.64 1.547a2.2 2.2 0 00.64 1.546c.407.407.972.641 1.547.641s1.14-.234 1.546-.64c.407-.408.642-.972.642-1.547 0-.576-.235-1.14-.642-1.547zm10.282 0a2.194 2.194 0 00-1.547-.64c-.575 0-1.14.231-1.546.64a2.204 2.204 0 00-.641 1.547c0 .575.234 1.14.64 1.546.408.407.972.641 1.547.641.576 0 1.14-.234 1.547-.64a2.21 2.21 0 00.64-1.547c0-.576-.233-1.14-.64-1.547z" fill="#35CD8C"/></svg>